<svg width="128" height="128" viewBox="0 0 128 128" fill="none" xmlns="http://www.w3.org/2000/svg">
<path d="M101.202 48.5524L74.5368 25.2195C68.5044 19.9409 59.4968 19.9408 53.4643 25.2193L26.7979 48.5524C23.3257 51.5906 21.334 55.9798 21.334 60.5936V96C21.334 104.837 28.4974 112 37.334 112H45.336C48.2815 112 50.6693 109.612 50.6693 106.667V92.8C50.6693 88.6763 54.0122 85.3333 58.136 85.3333H69.8673C73.991 85.3333 77.334 88.6763 77.334 92.8V106.667C77.334 109.612 79.7218 112 82.6673 112H90.6653C99.5019 112 106.665 104.837 106.665 96V60.5934C106.665 55.9797 104.674 51.5906 101.202 48.5524Z" stroke="black" stroke-width="8"/>
</svg>
