<svg width="128" height="128" viewBox="0 0 128 128" fill="none" xmlns="http://www.w3.org/2000/svg">
<path d="M65.291 22.6667C89.9759 22.6668 110.667 40.9062 110.667 64.2038C110.667 73.3422 108.808 79.695 106.18 84.2263C103.539 88.7789 100.307 91.1565 98.2812 92.5632C96.707 93.6565 96.0921 95.2818 95.9961 97.4782C95.9478 98.5839 96.0424 99.706 96.1738 100.797C96.273 101.619 96.499 103.081 96.499 104C96.499 106.806 95.0786 108.967 93.1895 110.283C91.42 111.515 89.2955 112 87.3926 112C85.4898 112 83.366 111.515 81.5967 110.283C79.7075 108.967 78.2871 106.806 78.2871 104C78.287 103.607 78.1363 103.248 77.9326 103.024C77.8385 102.921 77.7299 102.841 77.5996 102.783C77.4721 102.727 77.2683 102.667 76.9531 102.667C76.9486 102.667 76.8683 102.669 76.6748 102.693C76.4799 102.718 76.2316 102.756 75.9033 102.814C75.4305 102.897 74.2276 103.128 73.3711 103.275C71.3008 103.631 68.598 104 65.291 104C62.2914 104 60.2443 103.609 58.6455 103.22C57.1197 102.849 56.6805 102.704 56.209 102.674C56.1853 102.684 56.1576 102.695 56.127 102.711C55.8984 102.824 55.6002 103.02 55.3115 103.284C55.0214 103.549 54.8261 103.806 54.7207 103.995C54.6898 104.05 54.6735 104.09 54.6641 104.113C54.6248 106.941 53.1154 109.063 51.2188 110.328C49.4154 111.53 47.2597 112 45.333 112C43.4064 112 41.2515 111.53 39.4482 110.328C37.5263 109.047 36 106.885 36 104C36 101.052 36.6499 97.7919 36.8643 95.9255C37.1139 93.7515 37.0227 92.3157 36.3955 91.0114C34.6545 87.3913 33.9608 86.2172 32.6318 85.3034C31.1122 84.2586 28.3605 83.326 21.6328 82.2263C18.4431 81.7049 16.0053 78.9529 16.0029 75.6315C15.9997 71.0823 15.9999 68.1735 16 64.2009V62.9147C16.0001 60.7476 17.0763 58.5197 19.1973 57.2927L20.0264 56.8229C20.7797 56.4025 21.3377 56.1044 21.9766 55.6901C22.7179 55.2093 23.161 54.8093 23.4463 54.4225C27.2634 49.2462 29.7442 44.4136 30.667 39.6237V37.6921C30.5946 37.0694 30.4976 36.3918 30.3867 35.6013C30.271 34.7764 30.1444 33.8401 30.0742 32.9411C30.0067 32.0761 29.9699 31.0204 30.123 30.0007C30.2581 29.1013 30.6618 27.3702 32.2236 26.1657L32.4453 26.0046C33.558 25.2375 34.7442 25.0719 35.5889 25.0739C36.4815 25.0761 37.3065 25.2623 37.9414 25.447C39.1924 25.8107 40.537 26.4271 41.5527 26.8913C42.7137 27.4218 43.5651 27.8111 44.2568 28.0378C44.2721 28.0428 44.2874 28.0459 44.3018 28.0505C49.817 25.3742 57.2387 22.6667 65.291 22.6667Z" stroke="black" stroke-width="8"/>
<path d="M53 43C63 39 71 39 81 43" stroke="black" stroke-width="5.33333" stroke-linecap="round"/>
</svg>
